<?xml version="1.0" encoding="UTF-8"?>
<svg width="22px" height="22px" viewBox="0 0 22 22" version="1.1" xmlns="http://www.w3.org/2000/svg" xmlns:xlink="http://www.w3.org/1999/xlink">
    <!-- Generator: Sketch 47.1 (45422) - http://www.bohemiancoding.com/sketch -->
    <title>facebook</title>
    <desc>Created with Sketch.</desc>
    <defs></defs>
    <g id="app" stroke="none" stroke-width="1" fill="none" fill-rule="evenodd">
        <g id="Landing" transform="translate(-1249.000000, -2294.000000)" fill="#60AEF0">
            <g id="facebook" transform="translate(1249.000000, 2294.000000)">
                <g id="Layer_1">
                    <path d="M22,20 L22,2 C22,0.89571525 21.1042847,0 20,0 L2,0 C0.89571525,0 0,0.89571525 0,2 L0,20 C0,21.1042847 0.89571525,22 2,22 L20,22 C21.1042847,22 22,21.1042847 22,20 L22,20 Z M20,20 C20,19.9997153 19.9997153,20 20,20 L2,20 C2.00028475,20 2,19.9997153 2,20 L2,2 C2,2.00028475 2.00028475,2 2,2 L20,2 C19.9997153,2 20,2.00028475 20,2 L20,20 L20,20 Z" id="Blue_1_" fill-rule="nonzero"></path>
                    <path d="M14.8,21 L14.8,13.255 L17.4,13.255 L17.789,10.237 L14.8,10.237 L14.8,8.31 C14.8,7.436 15.043,6.841 16.296,6.841 L17.894,6.84 L17.894,4.14 C17.617,4.103 16.669,4.021 15.565,4.021 C13.261,4.021 11.683,5.428 11.683,8.011 L11.683,10.237 L9.077,10.237 L9.077,13.255 L11.683,13.255 L11.683,21 L14.8,21 L14.8,21 Z" id="f"></path>
                </g>
            </g>
        </g>
    </g>
</svg>