<?xml version="1.0" encoding="UTF-8"?>
<svg width="24px" height="22px" viewBox="0 0 24 22" version="1.1" xmlns="http://www.w3.org/2000/svg" xmlns:xlink="http://www.w3.org/1999/xlink">
    <!-- Generator: Sketch 47.1 (45422) - http://www.bohemiancoding.com/sketch -->
    <title>icons8-sorting_options</title>
    <desc>Created with Sketch.</desc>
    <defs></defs>
    <g id="Symbols" stroke="none" stroke-width="1" fill="none" fill-rule="evenodd">
        <g id="admin-nav" transform="translate(-22.000000, -937.000000)" fill-rule="nonzero" fill="#FFFFFF">
            <g id="icons8-sorting_options" transform="translate(22.000000, 937.000000)">
                <path d="M11,0 C9.707031,0 8.605469,0.84375 8.1875,2 L0,2 L0,4 L8.1875,4 C8.605469,5.15625 9.707031,6 11,6 C12.292969,6 13.394531,5.15625 13.8125,4 L24,4 L24,2 L13.8125,2 C13.394531,0.84375 12.292969,0 11,0 Z M11,2 C11.5625,2 12,2.4375 12,3 C12,3.5625 11.5625,4 11,4 C10.4375,4 10,3.5625 10,3 C10,2.4375 10.4375,2 11,2 Z M18,8 C16.707031,8 15.605469,8.84375 15.1875,10 L0,10 L0,12 L15.1875,12 C15.605469,13.15625 16.707031,14 18,14 C19.292969,14 20.394531,13.15625 20.8125,12 L24,12 L24,10 L20.8125,10 C20.394531,8.84375 19.292969,8 18,8 Z M18,10 C18.5625,10 19,10.4375 19,11 C19,11.5625 18.5625,12 18,12 C17.4375,12 17,11.5625 17,11 C17,10.4375 17.4375,10 18,10 Z M7,16 C5.707031,16 4.605469,16.84375 4.1875,18 L0,18 L0,20 L4.1875,20 C4.605469,21.15625 5.707031,22 7,22 C8.292969,22 9.394531,21.15625 9.8125,20 L24,20 L24,18 L9.8125,18 C9.394531,16.84375 8.292969,16 7,16 Z M7,18 C7.5625,18 8,18.4375 8,19 C8,19.5625 7.5625,20 7,20 C6.4375,20 6,19.5625 6,19 C6,18.4375 6.4375,18 7,18 Z" id="Shape"></path>
            </g>
        </g>
    </g>
</svg>