<?xml version="1.0" encoding="UTF-8"?>
<svg width="14px" height="16px" viewBox="0 0 14 16" version="1.1" xmlns="http://www.w3.org/2000/svg" xmlns:xlink="http://www.w3.org/1999/xlink">
    <!-- Generator: Sketch 47.1 (45422) - http://www.bohemiancoding.com/sketch -->
    <title>icons8-filled_filter</title>
    <desc>Created with Sketch.</desc>
    <defs></defs>
    <g id="app" stroke="none" stroke-width="1" fill="none" fill-rule="evenodd">
        <g id="admin-events" transform="translate(-412.000000, -142.000000)" fill-rule="nonzero" fill="#90CAF9">
            <g id="icons8-filled_filter" transform="translate(412.000000, 142.000000)">
                <path d="M0,0 L0,1.5625 L0.139204545,1.75 L5.09090909,8.22916667 L5.09090909,16 L6.10511364,15.2083333 L8.65056818,13.2083333 L8.90909091,13 L8.90909091,8.22916667 L13.8607955,1.75 L14,1.5625 L14,0 L0,0 Z M1.45170455,1.33333333 L12.5482955,1.33333333 L11.5340909,2.66666667 L2.46590909,2.66666667 L1.45170455,1.33333333 Z M3.48011364,4 L10.5198864,4 L7.77556818,7.58333333 L7.63636364,7.77083333 L7.63636364,12.3333333 L6.36363636,13.3333333 L6.36363636,7.77083333 L6.22443182,7.58333333 L3.48011364,4 Z" id="Shape"></path>
            </g>
        </g>
    </g>
</svg>