<?xml version="1.0" encoding="UTF-8"?>
<svg width="21px" height="21px" viewBox="0 0 21 21" version="1.1" xmlns="http://www.w3.org/2000/svg" xmlns:xlink="http://www.w3.org/1999/xlink">
    <!-- Generator: Sketch 47.1 (45422) - http://www.bohemiancoding.com/sketch -->
    <title>Fill 5</title>
    <desc>Created with Sketch.</desc>
    <defs></defs>
    <g id="app" stroke="none" stroke-width="1" fill="none" fill-rule="evenodd">
        <g id="user-browse-events" transform="translate(-873.000000, -637.000000)" fill="#60AEF0">
            <path d="M882.003501,644.959502 C882.236016,644.611634 882.385587,644.253927 882.452214,643.887787 C882.491646,643.521647 882.512042,643.213134 882.512042,642.96295 C882.512042,641.881397 882.234656,640.790707 881.679883,639.691585 C881.420173,639.164512 881.078199,638.735124 880.653282,638.404825 C880.220205,638.092095 879.721861,637.926945 879.15825,637.908673 C878.413114,637.926945 877.793074,638.226323 877.299489,638.806806 C876.88273,639.414696 876.683528,640.094269 876.701885,640.844118 C876.701885,641.83642 876.992869,642.86878 877.574836,643.941197 C877.856302,644.441565 878.220032,644.866034 878.666025,645.214605 C879.111339,645.563176 879.620561,645.737461 880.19369,645.737461 C880.91775,645.710756 881.520794,645.451436 882.003501,644.959502 Z M883.344882,651.957623 C882.862855,651.466391 882.11024,650.864825 881.085678,650.150817 C880.910952,650.133248 880.704952,650.124112 880.468357,650.124112 C880.328304,650.106543 879.969334,650.124112 879.391445,650.177522 C878.822395,650.25834 878.240428,650.387649 877.644863,650.565448 C877.50481,650.619561 877.307648,650.699676 877.054057,650.806496 C876.799786,650.922452 876.542116,651.087601 876.279007,651.301944 C876.025416,651.524721 875.810577,651.800907 875.635851,652.131206 C875.43393,652.479074 875.333309,652.898624 875.333309,653.389153 C875.333309,654.352642 875.771145,655.146062 876.646816,655.770819 C877.478295,656.395576 878.617075,656.716739 880.061116,656.734308 C881.357625,656.716739 882.346834,656.431417 883.029422,655.878342 C883.695014,655.3337 884.02747,654.633747 884.02747,653.777078 C884.02747,653.081342 883.799714,652.474857 883.344882,651.957623 Z M882.965515,637.988789 C883.138201,638.096311 883.331964,638.252325 883.548162,638.457532 C883.755522,638.671172 883.958123,638.934709 884.157325,639.246736 C884.347008,639.541194 884.514936,639.888359 884.661787,640.29034 C884.782804,640.691618 884.843312,641.159658 884.843312,641.694462 C884.826995,642.676223 884.610117,643.460507 884.191998,644.049423 C883.987357,644.334745 883.769799,644.597579 883.540684,644.838627 C883.286413,645.079674 883.016505,645.324939 882.7296,645.57442 C882.565752,645.743786 882.414141,645.935641 882.274768,646.149984 C882.11092,646.37276 882.029336,646.631377 882.029336,646.925835 C882.029336,647.211157 882.11296,647.447285 882.281567,647.634923 C882.42366,647.813425 882.563033,647.969439 882.697647,648.102964 L883.630426,648.865463 C884.209674,649.338423 884.718216,649.859873 885.155372,650.430517 C885.567372,651.010297 885.781531,651.76858 885.798528,652.705364 C885.798528,654.033587 885.209761,655.211419 884.033589,656.236751 C882.813224,657.297924 881.052364,657.846783 878.751689,657.882624 C876.825621,657.864352 875.387699,657.455344 874.437922,656.654193 C873.479307,655.90575 873,655.011131 873,653.969636 C873,653.46224 873.15569,652.897218 873.46775,652.273867 C873.770291,651.650515 874.318265,651.103062 875.110992,650.631508 C876.00162,650.124112 876.937119,649.786083 877.91749,649.616717 C878.888342,649.474056 879.693987,649.394644 880.335783,649.376372 C880.137261,649.116349 879.960495,648.838055 879.805485,648.542191 C879.62464,648.255464 879.534218,647.910407 879.534218,647.506318 C879.534218,647.264567 879.568891,647.062874 879.637558,646.901238 C879.698066,646.731169 879.753815,646.57375 879.805485,646.431089 C879.493426,646.466227 879.199042,646.484499 878.922336,646.484499 C877.458579,646.466227 876.342914,646.007323 875.575342,645.106379 C874.771738,644.267982 874.370615,643.291844 874.370615,642.17726 C874.370615,640.830765 874.939665,639.608659 876.077765,638.511645 C876.859614,637.870021 877.671378,637.450472 878.514415,637.2544 C879.348614,637.085034 880.130463,637 880.859962,637 L886.359419,637 L884.661107,637.988789 L882.965515,637.988789 Z M893.798687,646.811055 L893.798687,648.216582 L891.079212,648.216582 L891.079212,651.027637 L889.719475,651.027637 L889.719475,648.216582 L887,648.216582 L887,646.811055 L889.719475,646.811055 L889.719475,644 L891.079212,644 L891.079212,646.811055 L893.798687,646.811055 Z" id="Fill-5"></path>
        </g>
    </g>
</svg>