<?xml version="1.0" encoding="UTF-8"?>
<svg width="12px" height="12px" viewBox="0 0 12 12" version="1.1" xmlns="http://www.w3.org/2000/svg" xmlns:xlink="http://www.w3.org/1999/xlink">
    <!-- Generator: Sketch 47.1 (45422) - http://www.bohemiancoding.com/sketch -->
    <title>Instagram</title>
    <desc>Created with Sketch.</desc>
    <defs></defs>
    <g id="app" stroke="none" stroke-width="1" fill="none" fill-rule="evenodd">
        <g id="user-events-show" transform="translate(-1005.000000, -1081.000000)" fill="#006DC9">
            <g id="Instagram" transform="translate(1005.000000, 1081.000000)">
                <g id="Layer_1">
                    <path d="M1.63636364,12 L10.3636364,12 C11.2676099,12 12,11.2676099 12,10.3636364 L12,1.63636364 C12,0.732390136 11.2676099,0 10.3636364,0 L1.63636364,0 C0.732390136,0 0,0.732390136 0,1.63636364 L0,10.3636364 C0,11.2676099 0.732390136,12 1.63636364,12 L1.63636364,12 Z M1.63636364,10.9090909 C1.33488259,10.9090909 1.09090909,10.6651174 1.09090909,10.3636364 L1.09090909,1.63636364 C1.09090909,1.33488259 1.33488259,1.09090909 1.63636364,1.09090909 L10.3636364,1.09090909 C10.6651174,1.09090909 10.9090909,1.33488259 10.9090909,1.63636364 L10.9090909,10.3636364 C10.9090909,10.6651174 10.6651174,10.9090909 10.3636364,10.9090909 L1.63636364,10.9090909 L1.63636364,10.9090909 Z" id="Shape" fill-rule="nonzero"></path>
                    <path d="M6,9.27272727 C7.80747736,9.27272727 9.27272727,7.80747736 9.27272727,6 C9.27272727,4.19252264 7.80747736,2.72727273 6,2.72727273 C4.19252264,2.72727273 2.72727273,4.19252264 2.72727273,6 C2.72727273,7.80747736 4.19252264,9.27272727 6,9.27272727 L6,9.27272727 Z M6,8.18181818 C4.79501509,8.18181818 3.81818182,7.20498491 3.81818182,6 C3.81818182,4.79501509 4.79501509,3.81818182 6,3.81818182 C7.20498491,3.81818182 8.18181818,4.79501509 8.18181818,6 C8.18181818,7.20498491 7.20498491,8.18181818 6,8.18181818 L6,8.18181818 Z" id="Oval" fill-rule="nonzero"></path>
                    <path d="M0.545454545,0.545454545 L0.545454545,4.90909091 L3.46309091,4.90909091 C3.91309091,3.63872727 4.57581818,3.27272727 6,3.27272727 C7.42418182,3.27272727 8.08745455,3.63872727 8.53690909,4.90909091 L11.4545455,4.90909091 L11.4545455,0.545454545 L0.545454545,0.545454545 L0.545454545,0.545454545 Z M10.3636364,3.27272727 L8.72727273,3.27272727 L8.72727273,1.63636364 L10.3636364,1.63636364 L10.3636364,3.27272727 L10.3636364,3.27272727 Z" id="Shape"></path>
                </g>
            </g>
        </g>
    </g>
</svg>