<?xml version="1.0" encoding="UTF-8"?>
<svg width="22px" height="23px" viewBox="0 0 22 23" version="1.1" xmlns="http://www.w3.org/2000/svg" xmlns:xlink="http://www.w3.org/1999/xlink">
    <!-- Generator: Sketch 47.1 (45422) - http://www.bohemiancoding.com/sketch -->
    <title>Fill 33</title>
    <desc>Created with Sketch.</desc>
    <defs></defs>
    <g id="app" stroke="none" stroke-width="1" fill="none" fill-rule="evenodd">
        <g id="user-browse-events" transform="translate(-913.000000, -635.000000)" fill="#60AEF0">
            <path d="M931.539339,654.162258 L928.312682,654.162258 L928.312682,648.943535 C928.312682,647.69894 928.292286,646.098045 926.636126,646.098045 C924.95753,646.098045 924.70122,647.454379 924.70122,648.854284 L924.70122,654.162258 L921.477962,654.162258 L921.477962,643.430354 L924.571365,643.430354 L924.571365,644.897724 L924.615556,644.897724 C925.045913,644.053705 926.09835,643.164006 927.668166,643.164006 C930.935615,643.164006 931.539339,645.386145 931.539339,648.276612 L931.539339,654.162258 Z M915.967627,640.02968 C915.967627,638.962182 916.803185,638.095674 917.839985,638.095674 C918.872026,638.095674 919.710304,638.962182 919.710304,640.02968 C919.710304,641.097881 918.872026,641.964388 917.839985,641.964388 C916.803185,641.964388 915.967627,641.097881 915.967627,640.02968 Z M919.453993,654.162258 L916.223937,654.162258 L916.223937,643.430354 L919.453993,643.430354 L919.453993,654.162258 Z M913.906945,635 C913.405882,635 913,635.41955 913,635.936784 L913,656.550952 C913,657.068889 913.405882,657.488439 913.906945,657.488439 L933.849532,657.488439 C934.349916,657.488439 934.755797,657.068889 934.755797,656.550952 L934.755797,635.936784 C934.755797,635.41955 934.349916,635 933.849532,635 L913.906945,635 Z" id="Fill-33"></path>
        </g>
    </g>
</svg>