<?xml version="1.0" encoding="UTF-8"?>
<svg width="24px" height="24px" viewBox="0 0 24 24" version="1.1" xmlns="http://www.w3.org/2000/svg" xmlns:xlink="http://www.w3.org/1999/xlink">
    <!-- Generator: Sketch 47.1 (45422) - http://www.bohemiancoding.com/sketch -->
    <title>icons8-logout_rounded_left</title>
    <desc>Created with Sketch.</desc>
    <defs></defs>
    <g id="Symbols" stroke="none" stroke-width="1" fill="none" fill-rule="evenodd">
        <g id="admin-nav" transform="translate(-100.000000, -935.000000)" fill-rule="nonzero" fill="#FFFFFF">
            <g id="icons8-logout_rounded_left" transform="translate(112.500000, 947.000000) rotate(180.000000) translate(-112.500000, -947.000000) translate(100.000000, 935.000000)">
                <path d="M13,0 C8.949219,0 5.359375,2.011719 3.1875,5.09375 L4.8125,6.25 C6.621094,3.679688 9.609375,2 13,2 C18.535156,2 23,6.464844 23,12 C23,17.535156 18.535156,22 13,22 C9.609375,22 6.625,20.320313 4.8125,17.75 L3.1875,18.90625 C5.359375,21.988281 8.949219,24 13,24 C19.617188,24 25,18.617188 25,12 C25,5.382813 19.617188,0 13,0 Z M5.65625,7.28125 L1.65625,11.28125 L0.96875,12 L1.65625,12.71875 L5.65625,16.71875 L7.09375,15.28125 L4.8125,13 L17,13 L17,11 L4.8125,11 L7.09375,8.71875 L5.65625,7.28125 Z" id="Shape"></path>
            </g>
        </g>
    </g>
</svg>