<?xml version="1.0" encoding="UTF-8"?>
<svg width="49px" height="55px" viewBox="0 0 49 55" version="1.1" xmlns="http://www.w3.org/2000/svg" xmlns:xlink="http://www.w3.org/1999/xlink">
    <!-- Generator: Sketch 47.1 (45422) - http://www.bohemiancoding.com/sketch -->
    <title>meshd-admin-logo</title>
    <desc>Created with Sketch.</desc>
    <defs></defs>
    <g id="Symbols" stroke="none" stroke-width="1" fill="none" fill-rule="evenodd">
        <g id="admin-nav" transform="translate(-50.000000, -17.000000)">
            <g id="meshd-admin-logo" transform="translate(50.000000, 17.000000)">
                <g id="Meshd" transform="translate(8.000000, 0.000000)" fill-rule="nonzero" fill="#F7F7F7">
                    <g id="Logo">
                        <polygon id="Line" points="2.8660254 28.4807621 17.8660254 2.5 16.1339746 2.5 31.1339746 28.4807621 31.6339746 29.3467875 33.3660254 28.3467875 32.8660254 27.4807621 17.8660254 1.5 17 0 16.1339746 1.5 1.1339746 27.4807621 0.633974596 28.3467875 2.3660254 29.3467875"></polygon>
                        <polygon id="Line-Copy-3" points="24.1339746 1.5 9.1339746 27.4807621 8.6339746 28.3467875 10.3660254 29.3467875 10.8660254 28.4807621 25.8660254 2.5 26.3660254 1.6339746 24.6339746 0.633974596"></polygon>
                        <polygon id="Line-Copy-4" points="31.1339746 1.5 16.1339746 27.4807621 17.8660254 27.4807621 2.8660254 1.5 2.3660254 0.633974596 0.633974596 1.6339746 1.1339746 2.5 16.1339746 28.4807621 17 29.9807621 17.8660254 28.4807621 32.8660254 2.5 33.3660254 1.6339746 31.6339746 0.633974596"></polygon>
                        <polygon id="Line-Copy-3" points="9.1339746 2.5 24.1339746 28.4807621 24.6339746 29.3467875 26.3660254 28.3467875 25.8660254 27.4807621 10.8660254 1.5 10.3660254 0.633974596 8.6339746 1.6339746"></polygon>
                    </g>
                </g>
                <path d="M7.66992188,55 L6.67871094,52.1767578 L2.75488281,52.1767578 L1.76367188,55 L0.471679688,55 L4.10839844,45.1357422 L5.32519531,45.1357422 L8.96191406,55 L7.66992188,55 Z M4.66210938,46.7285156 L3.1171875,51.1308594 L6.31640625,51.1308594 L4.77148438,46.7285156 L4.66210938,46.7285156 Z M11.6914062,45.1357422 L15.0751953,45.1357422 C18.0009766,45.1357422 19.7304688,46.9609375 19.7304688,50.0644531 C19.7304688,53.1748047 18.0078125,55 15.0751953,55 L11.6914062,55 L11.6914062,45.1357422 Z M12.921875,46.2431641 L12.921875,53.8925781 L14.9931641,53.8925781 C17.1943359,53.8925781 18.4726562,52.484375 18.4726562,50.078125 C18.4726562,47.6650391 17.1806641,46.2431641 14.9931641,46.2431641 L12.921875,46.2431641 Z M24.0048828,55 L24.0048828,47.4667969 L24.0869141,47.4667969 L27.1972656,54.9316406 L28.2363281,54.9316406 L31.3466797,47.4667969 L31.4287109,47.4667969 L31.4287109,55 L32.5771484,55 L32.5771484,45.1357422 L31.1484375,45.1357422 L27.7714844,53.2978516 L27.6621094,53.2978516 L24.2851562,45.1357422 L22.8564453,45.1357422 L22.8564453,55 L24.0048828,55 Z M37.3232422,55 L37.3232422,45.1357422 L36.0927734,45.1357422 L36.0927734,55 L37.3232422,55 Z M42.0556641,55 L42.0556641,47.3505859 L42.1650391,47.3505859 L47.5175781,55 L48.7138672,55 L48.7138672,45.1357422 L47.4970703,45.1357422 L47.4970703,52.8125 L47.3876953,52.8125 L42.0351562,45.1357422 L40.8388672,45.1357422 L40.8388672,55 L42.0556641,55 Z" id="ADMIN" fill="#90CAF9"></path>
            </g>
        </g>
    </g>
</svg>