<?xml version="1.0" encoding="UTF-8"?>
<svg width="175px" height="32px" viewBox="0 0 175 32" version="1.1" xmlns="http://www.w3.org/2000/svg" xmlns:xlink="http://www.w3.org/1999/xlink">
    <!-- Generator: Sketch 47.1 (45422) - http://www.bohemiancoding.com/sketch -->
    <title>Meshd</title>
    <desc>Created with Sketch.</desc>
    <defs></defs>
    <g id="app" stroke="none" stroke-width="1" fill="none" fill-rule="evenodd">
        <g id="user-signup-topics" transform="translate(-85.000000, -22.000000)">
            <g id="nav-web">
                <g id="Meshd" transform="translate(85.000000, 22.000000)">
                    <path d="M50.358,8.64 L52.122,8.64 L52.122,11.916 C52.4100014,11.4359976 52.7399981,10.9740022 53.112,10.53 C53.4840019,10.0859978 53.9099976,9.69000174 54.39,9.342 C54.8700024,8.99399826 55.4279968,8.71800102 56.064,8.514 C56.7000032,8.30999898 57.4259959,8.208 58.242,8.208 C59.034004,8.208 59.7599967,8.31599892 60.42,8.532 C61.0800033,8.74800108 61.6619975,9.0359982 62.166,9.396 C62.6700025,9.7560018 63.1079981,10.1759976 63.48,10.656 C63.8520019,11.1360024 64.1699987,11.6399974 64.434,12.168 C64.7220014,11.6639975 65.069998,11.1720024 65.478,10.692 C65.886002,10.2119976 66.3599973,9.78600186 66.9,9.414 C67.4400027,9.04199814 68.0519966,8.74800108 68.736,8.532 C69.4200034,8.31599892 70.1939957,8.208 71.058,8.208 C72.1380054,8.208 73.1159956,8.39399814 73.992,8.766 C74.8680044,9.13800186 75.6119969,9.6539967 76.224,10.314 C76.8360031,10.9740033 77.3039984,11.7779953 77.628,12.726 C77.9520016,13.6740047 78.114,14.7239942 78.114,15.876 L78.114,27 L76.35,27 L76.35,16.092 C76.35,14.09999 75.8700048,12.5580055 74.91,11.466 C73.9499952,10.3739945 72.6180085,9.828 70.914,9.828 C70.1459962,9.828 69.4080035,9.97199856 68.7,10.26 C67.9919965,10.5480014 67.3740026,10.9679972 66.846,11.52 C66.3179974,12.0720028 65.8980016,12.749996 65.586,13.554 C65.2739984,14.358004 65.118,15.2759948 65.118,16.308 L65.118,27 L63.354,27 L63.354,15.984 C63.354,14.0639904 62.8740048,12.5580055 61.914,11.466 C60.9539952,10.3739945 59.6460083,9.828 57.99,9.828 C57.1739959,9.828 56.4060036,9.99599832 55.686,10.332 C54.9659964,10.6680017 54.3420026,11.135997 53.814,11.736 C53.2859974,12.336003 52.8720015,13.031996 52.572,13.824 C52.2719985,14.616004 52.122,15.4799953 52.122,16.416 L52.122,27 L50.358,27 L50.358,8.64 Z M101.562,16.956 C101.49,16.0199953 101.304001,15.1260043 101.004,14.274 C100.703998,13.4219957 100.284003,12.6660033 99.744,12.006 C99.2039973,11.3459967 98.538004,10.818002 97.746,10.422 C96.953996,10.025998 96.0300053,9.828 94.974,9.828 C94.0619954,9.828 93.210004,10.0079982 92.418,10.368 C91.625996,10.7280018 90.9360029,11.2259968 90.348,11.862 C89.7599971,12.4980032 89.2740019,13.2539956 88.89,14.13 C88.5059981,15.0060044 88.2780004,15.947995 88.206,16.956 L101.562,16.956 Z M95.334,27.432 C94.133994,27.432 92.9880055,27.2040023 91.896,26.748 C90.8039945,26.2919977 89.8440041,25.6440042 89.016,24.804 C88.1879959,23.9639958 87.5340024,22.9560059 87.054,21.78 C86.5739976,20.6039941 86.334,19.2960072 86.334,17.856 L86.334,17.784 C86.334,16.4639934 86.5559978,15.2220058 87,14.058 C87.4440022,12.8939942 88.0559961,11.8800043 88.836,11.016 C89.6160039,10.1519957 90.5339947,9.46800252 91.59,8.964 C92.6460053,8.45999748 93.7979938,8.208 95.046,8.208 C96.3420065,8.208 97.5059948,8.45399754 98.538,8.946 C99.5700052,9.43800246 100.451996,10.1159957 101.184,10.98 C101.916004,11.8440043 102.479998,12.8579942 102.876,14.022 C103.272002,15.1860058 103.47,16.4519932 103.47,17.82 L103.47,18.198 C103.47,18.2820004 103.458,18.3959993 103.434,18.54 L88.206,18.54 C88.2780004,19.6920058 88.5299978,20.7119956 88.962,21.6 C89.3940022,22.4880044 89.9339968,23.2439969 90.582,23.868 C91.2300032,24.4920031 91.9679959,24.9659984 92.796,25.29 C93.6240041,25.6140016 94.4939954,25.776 95.406,25.776 C96.8460072,25.776 98.063995,25.5000028 99.06,24.948 C100.056005,24.3959972 100.937996,23.7120041 101.706,22.896 L102.93,23.976 C101.993995,24.984005 100.932006,25.8119968 99.744,26.46 C98.5559941,27.1080032 97.0860088,27.432 95.334,27.432 L95.334,27.432 Z M117.558,27.36 C116.213993,27.36 114.870007,27.1140025 113.526,26.622 C112.181993,26.1299975 111.018005,25.488004 110.034,24.696 L111.078,23.292 C112.086005,24.0600038 113.141994,24.6539979 114.246,25.074 C115.350006,25.4940021 116.489994,25.704 117.666,25.704 C118.914006,25.704 119.963996,25.3920031 120.816,24.768 C121.668004,24.1439969 122.094,23.2920054 122.094,22.212 L122.094,22.14 C122.094,21.6119974 121.962001,21.1560019 121.698,20.772 C121.433999,20.3879981 121.074002,20.0520014 120.618,19.764 C120.161998,19.4759986 119.646003,19.236001 119.07,19.044 C118.493997,18.851999 117.882003,18.660001 117.234,18.468 C116.489996,18.2519989 115.740004,18.0240012 114.984,17.784 C114.227996,17.5439988 113.550003,17.2380019 112.95,16.866 C112.349997,16.4939981 111.864002,16.0320028 111.492,15.48 C111.119998,14.9279972 110.934,14.2440041 110.934,13.428 L110.934,13.356 C110.934,12.6119963 111.083998,11.9340031 111.384,11.322 C111.684001,10.7099969 112.097997,10.1760023 112.626,9.72 C113.154003,9.26399772 113.789996,8.91000126 114.534,8.658 C115.278004,8.40599874 116.093996,8.28 116.982,8.28 C118.086006,8.28 119.219994,8.4599982 120.384,8.82 C121.548006,9.1800018 122.585995,9.67199688 123.498,10.296 L122.562,11.772 C121.721996,11.2199972 120.816005,10.7760017 119.844,10.44 C118.871995,10.1039983 117.894005,9.936 116.91,9.936 C115.637994,9.936 114.624004,10.2419969 113.868,10.854 C113.111996,11.4660031 112.734,12.2279954 112.734,13.14 L112.734,13.212 C112.734,13.7160025 112.877999,14.1539981 113.166,14.526 C113.454001,14.8980019 113.831998,15.2159987 114.3,15.48 C114.768002,15.7440013 115.313997,15.977999 115.938,16.182 C116.562003,16.386001 117.197997,16.583999 117.846,16.776 C118.590004,16.9920011 119.321996,17.2259987 120.042,17.478 C120.762004,17.7300013 121.409997,18.053998 121.986,18.45 C122.562003,18.846002 123.023998,19.3199972 123.372,19.872 C123.720002,20.4240028 123.894,21.1079959 123.894,21.924 L123.894,21.996 C123.894,22.8120041 123.732002,23.5499967 123.408,24.21 C123.083998,24.8700033 122.634003,25.4339977 122.058,25.902 C121.481997,26.3700023 120.810004,26.7299987 120.042,26.982 C119.273996,27.2340013 118.446004,27.36 117.558,27.36 L117.558,27.36 Z M132.51,0.72 L134.274,0.72 L134.274,12.06 C134.898003,10.9799946 135.737995,10.0680037 136.794,9.324 C137.850005,8.57999628 139.217992,8.208 140.898,8.208 C142.050006,8.208 143.081995,8.39399814 143.994,8.766 C144.906005,9.13800186 145.679997,9.65999664 146.316,10.332 C146.952003,11.0040034 147.431998,11.8019954 147.756,12.726 C148.080002,13.6500046 148.242,14.6639945 148.242,15.768 L148.242,27 L146.478,27 L146.478,16.092 C146.478,14.1959905 145.974005,12.6780057 144.966,11.538 C143.957995,10.3979943 142.518009,9.828 140.646,9.828 C139.733995,9.828 138.894004,9.98999838 138.126,10.314 C137.357996,10.6380016 136.686003,11.0879971 136.11,11.664 C135.533997,12.2400029 135.084002,12.929996 134.76,13.734 C134.435998,14.538004 134.274,15.4199952 134.274,16.38 L134.274,27 L132.51,27 L132.51,0.72 Z M165.498,25.74 C166.458005,25.74 167.387995,25.5480019 168.288,25.164 C169.188004,24.7799981 169.985997,24.2400035 170.682,23.544 C171.378003,22.8479965 171.935998,22.0200048 172.356,21.06 C172.776002,20.0999952 172.986,19.0320059 172.986,17.856 L172.986,17.784 C172.986,16.6079941 172.776002,15.5340049 172.356,14.562 C171.935998,13.5899951 171.378003,12.7620034 170.682,12.078 C169.985997,11.3939966 169.188004,10.8600019 168.288,10.476 C167.387995,10.0919981 166.458005,9.9 165.498,9.9 C164.489995,9.9 163.548004,10.0799982 162.672,10.44 C161.795996,10.8000018 161.034003,11.3159966 160.386,11.988 C159.737997,12.6600034 159.228002,13.4819951 158.856,14.454 C158.483998,15.4260049 158.298,16.5239939 158.298,17.748 L158.298,17.82 C158.298,19.020006 158.489998,20.1119951 158.874,21.096 C159.258002,22.0800049 159.779997,22.9139966 160.44,23.598 C161.100003,24.2820034 161.867996,24.8099981 162.744,25.182 C163.620004,25.5540019 164.537995,25.74 165.498,25.74 L165.498,25.74 Z M165.318,27.432 C164.213994,27.432 163.128005,27.2160022 162.06,26.784 C160.991995,26.3519978 160.038004,25.7280041 159.198,24.912 C158.357996,24.0959959 157.680003,23.0940059 157.164,21.906 C156.647997,20.7179941 156.39,19.3800074 156.39,17.892 L156.39,17.82 C156.39,16.3319926 156.647997,14.9940059 157.164,13.806 C157.680003,12.6179941 158.357996,11.6100041 159.198,10.782 C160.038004,9.95399586 160.991995,9.31800222 162.06,8.874 C163.128005,8.42999778 164.213994,8.208 165.318,8.208 C166.230005,8.208 167.069996,8.3279988 167.838,8.568 C168.606004,8.8080012 169.295997,9.13199796 169.908,9.54 C170.520003,9.94800204 171.071998,10.4159974 171.564,10.944 C172.056002,11.4720026 172.493998,12.0239971 172.878,12.6 L172.878,0.72 L174.642,0.72 L174.642,27 L172.878,27 L172.878,22.896 C172.469998,23.496003 172.020002,24.0719972 171.528,24.624 C171.035998,25.1760028 170.484003,25.655998 169.872,26.064 C169.259997,26.472002 168.576004,26.8019987 167.82,27.054 C167.063996,27.3060013 166.230005,27.432 165.318,27.432 L165.318,27.432 Z" id="meshd" fill="#006DC9"></path>
                    <g id="Logo" transform="translate(0.000000, 2.000000)" fill-rule="nonzero" fill="#60AEF0">
                        <polygon id="Line" points="2.8660254 28.4807621 17.8660254 2.5 16.1339746 2.5 31.1339746 28.4807621 31.6339746 29.3467875 33.3660254 28.3467875 32.8660254 27.4807621 17.8660254 1.5 17 0 16.1339746 1.5 1.1339746 27.4807621 0.633974596 28.3467875 2.3660254 29.3467875"></polygon>
                        <polygon id="Line-Copy-3" points="24.1339746 1.5 9.1339746 27.4807621 8.6339746 28.3467875 10.3660254 29.3467875 10.8660254 28.4807621 25.8660254 2.5 26.3660254 1.6339746 24.6339746 0.633974596"></polygon>
                        <polygon id="Line-Copy-4" points="31.1339746 1.5 16.1339746 27.4807621 17.8660254 27.4807621 2.8660254 1.5 2.3660254 0.633974596 0.633974596 1.6339746 1.1339746 2.5 16.1339746 28.4807621 17 29.9807621 17.8660254 28.4807621 32.8660254 2.5 33.3660254 1.6339746 31.6339746 0.633974596"></polygon>
                        <polygon id="Line-Copy-3" points="9.1339746 2.5 24.1339746 28.4807621 24.6339746 29.3467875 26.3660254 28.3467875 25.8660254 27.4807621 10.8660254 1.5 10.3660254 0.633974596 8.6339746 1.6339746"></polygon>
                    </g>
                </g>
            </g>
        </g>
    </g>
</svg>