<?xml version="1.0" encoding="UTF-8"?>
<svg width="4px" height="18px" viewBox="0 0 4 18" version="1.1" xmlns="http://www.w3.org/2000/svg" xmlns:xlink="http://www.w3.org/1999/xlink">
    <!-- Generator: Sketch 47.1 (45422) - http://www.bohemiancoding.com/sketch -->
    <title>icons8-menu_2@2x</title>
    <desc>Created with Sketch.</desc>
    <defs></defs>
    <g id="app" stroke="none" stroke-width="1" fill="none" fill-rule="evenodd">
        <g id="admin-venues" transform="translate(-1345.000000, -143.000000)" fill-rule="nonzero" fill="#000000">
            <g id="table" transform="translate(179.000000, 120.000000)">
                <g id="icons8-menu_2" transform="translate(1166.000000, 23.000000)">
                    <path d="M2,0 C0.894531,0 0,0.894531 0,2 C0,3.105469 0.894531,4 2,4 C3.105469,4 4,3.105469 4,2 C4,0.894531 3.105469,0 2,0 Z M2,7 C0.894531,7 0,7.894531 0,9 C0,10.105469 0.894531,11 2,11 C3.105469,11 4,10.105469 4,9 C4,7.894531 3.105469,7 2,7 Z M2,14 C0.894531,14 0,14.894531 0,16 C0,17.105469 0.894531,18 2,18 C3.105469,18 4,17.105469 4,16 C4,14.894531 3.105469,14 2,14 Z" id="Shape"></path>
                </g>
            </g>
        </g>
    </g>
</svg>