<?xml version="1.0" encoding="UTF-8"?>
<svg width="22px" height="23px" viewBox="0 0 22 23" version="1.1" xmlns="http://www.w3.org/2000/svg" xmlns:xlink="http://www.w3.org/1999/xlink">
    <!-- Generator: Sketch 47.1 (45422) - http://www.bohemiancoding.com/sketch -->
    <title>Fill 11</title>
    <desc>Created with Sketch.</desc>
    <defs></defs>
    <g id="app" stroke="none" stroke-width="1" fill="none" fill-rule="evenodd">
        <g id="user-browse-events" transform="translate(-956.000000, -635.000000)" fill="#60AEF0">
            <path d="M956,646.244219 C956,651.007552 958.867006,655.076554 962.913584,656.714696 C962.818403,655.824997 962.732739,654.46023 962.951657,653.489011 C963.148819,652.611962 964.227091,647.899931 964.227091,647.899931 C964.227091,647.899931 963.901434,647.226683 963.901434,646.230867 C963.901434,644.667218 964.778464,643.499927 965.869653,643.499927 C966.797674,643.499927 967.246387,644.22026 967.246387,645.083957 C967.246387,646.048851 966.652182,647.490922 966.345561,648.827579 C966.089251,649.947082 966.888097,650.859972 967.95617,650.859972 C969.889717,650.859972 971.37591,648.752383 971.37591,645.710822 C971.37591,643.018534 969.504231,641.13583 966.831668,641.13583 C963.736905,641.13583 961.920296,643.535768 961.920296,646.015821 C961.920296,646.982121 962.279947,648.018698 962.72934,648.581612 C962.818403,648.693351 962.83132,648.790332 962.804805,648.90418 C962.722541,649.259779 962.538977,650.02298 962.502944,650.179696 C962.455353,650.384903 962.345214,650.429177 962.139214,650.330088 C960.780157,649.675815 959.931001,647.623042 959.931001,645.973655 C959.931001,642.426807 962.424079,639.169497 967.118572,639.169497 C970.891843,639.169497 973.824797,641.948928 973.824797,645.663737 C973.824797,649.538776 971.460893,652.657641 968.179847,652.657641 C967.07778,652.657641 966.04166,652.065211 965.686769,651.365961 C965.686769,651.365961 965.141514,653.512905 965.00894,654.039275 C964.763507,655.015413 964.100635,656.239628 963.656681,656.986666 C964.675124,657.312748 965.756795,657.488439 966.877899,657.488439 C972.885898,657.488439 977.755797,652.45384 977.755797,646.244219 C977.755797,640.033897 972.885898,635 966.877899,635 C960.869899,635 956,640.033897 956,646.244219 Z" id="Fill-11"></path>
        </g>
    </g>
</svg>