<?xml version="1.0" encoding="utf-8"?>
<!-- Generator: Adobe Illustrator 16.0.0, SVG Export Plug-In . SVG Version: 6.00 Build 0)  -->
<!DOCTYPE svg PUBLIC "-//W3C//DTD SVG 1.1//EN" "http://www.w3.org/Graphics/SVG/1.1/DTD/svg11.dtd">
<svg version="1.1" id="Layer_1" xmlns="http://www.w3.org/2000/svg" xmlns:xlink="http://www.w3.org/1999/xlink" x="0px" y="0px"
	 width="28.5px" height="6.3px" viewBox="154.345 1.949 28.5 6.3" enable-background="new 154.345 1.949 28.5 6.3"
	 xml:space="preserve">
<filter  width="107.4%" height="107.7%" id="filter-2" y="-2.7%" x="-3.7%" filterUnits="objectBoundingBox">
	<feOffset  result="shadowOffsetOuter1" dx="0" in="SourceAlpha" dy="2"></feOffset>
	<feGaussianBlur  result="shadowBlurOuter1" in="shadowOffsetOuter1" stdDeviation="2"></feGaussianBlur>
	<feColorMatrix  type="matrix" in="shadowBlurOuter1" values="0 0 0 0 0   0 0 0 0 0   0 0 0 0 0  0 0 0 0.5 0"></feColorMatrix>
</filter>
<title>Rectangle 10</title>
<desc>Created with Sketch.</desc>
<polygon fill="#FFFFFF" points="168.4,2 154.412,8.239 182.852,8.239 "/>
<g id="app_2_" display="none">
	<g id="user-browse-events_2_" transform="translate(-901.000000, -108.000000)" display="inline">
		<g id="Rectangle-10_2_">
			<g filter="url(#filter-2)">
				<polygon id="path-1_1_" points="905,116.239 1055.412,116.239 1069.4,110 1083.852,116.239 1093,116.239 1093,292 905,292 				
					"/>
			</g>
			<g>
				<polygon id="path-1_3_" fill="#FFFFFF" points="905,116.239 1055.412,116.239 1069.4,110 1083.852,116.239 1093,116.239 
					1093,292 905,292 				"/>
			</g>
		</g>
	</g>
</g>
<title>Rectangle 10</title>
<desc>Created with Sketch.</desc>
<g id="app_1_" display="none">
	<g id="user-browse-events_1_" transform="translate(-901.000000, -108.000000)" display="inline">
		<g id="Rectangle-10_1_">
			<g filter="url(#filter-2)">
				<polygon id="path-1_1_" points="905,116.239 1055.412,116.239 1069.4,110 1083.852,116.239 1093,116.239 1093,292 905,292 				
					"/>
			</g>
			<g>
				<polygon id="path-1_2_" fill="#FFFFFF" points="905,116.239 1055.412,116.239 1083.852,116.239 1093,116.239 1093,292 905,292 
									"/>
			</g>
		</g>
	</g>
</g>
</svg>
