<?xml version="1.0" encoding="UTF-8"?>
<svg width="202px" height="54px" viewBox="0 0 202 54" version="1.1" xmlns="http://www.w3.org/2000/svg" xmlns:xlink="http://www.w3.org/1999/xlink">
    <!-- Generator: Sketch 47.1 (45422) - http://www.bohemiancoding.com/sketch -->
    <title>sandalphon-capital-logo</title>
    <desc>Created with Sketch.</desc>
    <defs></defs>
    <g id="app" stroke="none" stroke-width="1" fill="none" fill-rule="evenodd">
        <g id="user-events-show" transform="translate(-268.000000, -879.000000)">
            <g id="sandalphon-capital-logo" transform="translate(270.000000, 881.000000)">
                <g id="Group-2">
                    <path d="M44.9614907,35.8642633 C43.808831,35.8642633 42.7059942,35.6668936 41.6529471,35.2721483 C40.5999,34.877403 39.6251346,34.2709398 38.7286215,33.4527404 L40.3081843,31.5579724 C41.0339329,32.1895649 41.7667858,32.6740178 42.5067648,33.0113456 C43.2467438,33.3486734 44.0863228,33.5173348 45.025527,33.5173348 C45.8366579,33.5173348 46.4805723,33.3450849 46.9572895,33.0005799 C47.4340068,32.6560749 47.6723618,32.1967418 47.6723618,31.6225668 L47.6723618,31.5795039 C47.6723618,31.3067708 47.6261138,31.0663386 47.5336165,30.8582002 C47.4411191,30.6500617 47.2703572,30.452692 47.0213258,30.2660852 C46.7722944,30.0794783 46.4307708,29.9072284 45.9967446,29.7493303 C45.5627185,29.5914321 44.9970699,29.4335364 44.299782,29.2756383 C43.5028815,29.0890314 42.7949314,28.8773075 42.1759105,28.6404603 C41.5568895,28.4036132 41.037489,28.11653 40.6176932,27.7792022 C40.1978974,27.4418744 39.8777189,27.0291923 39.6571483,26.5411435 C39.4365776,26.0530948 39.3262939,25.4645743 39.3262939,24.7755643 L39.3262939,24.7325014 C39.3262939,24.0865545 39.4543653,23.4944454 39.7105119,22.9561564 C39.9666585,22.4178673 40.3188547,21.9585342 40.7671113,21.5781433 C41.2153678,21.1977523 41.7525561,20.8999035 42.3786922,20.6845879 C43.0048283,20.4692723 43.6878756,20.3616161 44.4278546,20.3616161 C45.5235928,20.3616161 46.5090309,20.5231004 47.3841984,20.8460738 C48.2593659,21.1690472 49.0811572,21.639146 49.8495969,22.2563841 L48.4407978,24.2588094 C47.7577402,23.7564062 47.0818079,23.3724325 46.4129807,23.1068765 C45.7441535,22.8413206 45.0682213,22.7085446 44.3851637,22.7085446 C43.616724,22.7085446 43.0190576,22.8807945 42.5921466,23.2252995 C42.1652356,23.5698045 41.9517833,23.9932522 41.9517833,24.4956554 L41.9517833,24.5387183 C41.9517833,24.8258058 42.0015888,25.0805921 42.1012014,25.3030849 C42.200814,25.5255777 42.3822484,25.7265359 42.6455102,25.9059656 C42.908772,26.0853953 43.2716408,26.2540567 43.7341277,26.4119548 C44.1966146,26.5698529 44.7836084,26.7349258 45.4951267,26.9071783 C46.2777969,27.1081395 46.9715168,27.330629 47.5763073,27.5746533 C48.1810979,27.8186777 48.6827108,28.1165265 49.081161,28.4682087 C49.4796113,28.8198909 49.782002,29.2289844 49.9883423,29.6955016 C50.1946826,30.1620188 50.2978512,30.7038883 50.2978512,31.3211264 L50.2978512,31.3641893 C50.2978512,32.0675537 50.1662223,32.6991367 49.9029605,33.2589573 C49.6396988,33.818778 49.2732723,34.2924652 48.8036703,34.6800333 C48.3340682,35.0676015 47.7719772,35.3618617 47.1173803,35.562823 C46.4627835,35.7637842 45.7441608,35.8642633 44.9614907,35.8642633 Z M62.844638,29.6632044 L60.2618395,23.6343972 L57.7003864,29.6632044 L62.844638,29.6632044 Z M59.0878402,20.4692734 L61.5212206,20.4692734 L68.0956168,35.6489488 L65.3207093,35.6489488 L63.8051829,32.010133 L56.7398415,32.010133 L55.2029697,35.6489488 L52.5134439,35.6489488 L59.0878402,20.4692734 Z M71.0583,20.5769306 L73.4916804,20.5769306 L81.4962212,30.9981546 L81.4962212,20.5769306 L84.0790198,20.5769306 L84.0790198,35.6489488 L81.8804392,35.6489488 L73.6410985,24.9262844 L73.6410985,35.6489488 L71.0583,35.6489488 L71.0583,20.5769306 Z M93.8935899,33.2374259 C94.67626,33.2374259 95.3877677,33.111827 96.0281341,32.8606254 C96.6685006,32.6094239 97.2128039,32.257747 97.6610605,31.8055842 C98.109317,31.3534214 98.4579557,30.8151404 98.7069871,30.1907251 C98.9560185,29.5663098 99.0805324,28.8880757 99.0805324,28.1560026 L99.0805324,28.1129397 C99.0805324,27.3808666 98.9560185,26.699044 98.7069871,26.0674515 C98.4579557,25.435859 98.109317,24.8939895 97.6610605,24.4418267 C97.2128039,23.9896639 96.6685006,23.6343985 96.0281341,23.3760197 C95.3877677,23.117641 94.67626,22.9884535 93.8935899,22.9884535 L90.9479189,22.9884535 L90.9479189,33.2374259 L93.8935899,33.2374259 Z M88.3224295,20.5769306 L93.8935899,20.5769306 C95.0604799,20.5769306 96.1312989,20.7671232 97.106079,21.1475142 C98.080859,21.5279051 98.920438,22.0554205 99.6248412,22.7300761 C100.329244,23.4047317 100.873548,24.197799 101.257767,25.1093018 C101.641987,26.0208046 101.834094,27.0076531 101.834094,28.0698768 L101.834094,28.1129397 C101.834094,29.1751634 101.641987,30.1656004 101.257767,31.0842804 C100.873548,32.0029604 100.329244,32.7996163 99.6248412,33.4742719 C98.920438,34.1489275 98.080859,34.6800314 97.106079,35.0675995 C96.1312989,35.4551676 95.0604799,35.6489488 93.8935899,35.6489488 L88.3224295,35.6489488 L88.3224295,20.5769306 Z M114.466263,29.6632044 L111.883464,23.6343972 L109.322011,29.6632044 L114.466263,29.6632044 Z M110.709465,20.4692734 L113.142846,20.4692734 L119.717242,35.6489488 L116.942334,35.6489488 L115.426808,32.010133 L108.361466,32.010133 L106.824595,35.6489488 L104.135069,35.6489488 L110.709465,20.4692734 Z M122.679925,20.5769306 L125.305414,20.5769306 L125.305414,33.2374259 L133.160537,33.2374259 L133.160537,35.6489488 L122.679925,35.6489488 L122.679925,20.5769306 Z M141.971871,28.4143801 C142.967997,28.4143801 143.754213,28.1631823 144.330543,27.6607792 C144.906873,27.158376 145.195033,26.5124389 145.195033,25.7229483 L145.195033,25.6798854 C145.195033,24.7899141 144.903315,24.1188572 144.31987,23.6666944 C143.736425,23.2145316 142.953767,22.9884535 141.971871,22.9884535 L138.919473,22.9884535 L138.919473,28.4143801 L141.971871,28.4143801 Z M136.293984,20.5769306 L142.185326,20.5769306 C143.053378,20.5769306 143.839594,20.6953525 144.543997,20.9321996 C145.2484,21.1690468 145.846067,21.5099581 146.337014,21.9549437 C146.827962,22.3999293 147.205061,22.9310332 147.468323,23.5482714 C147.731585,24.1655095 147.863214,24.8545091 147.863214,25.615291 L147.863214,25.6583539 C147.863214,26.505262 147.706682,27.2480898 147.393614,27.8868594 C147.080546,28.5256291 146.653641,29.0603216 146.112887,29.4909528 C145.572133,29.921584 144.938892,30.2481412 144.213143,30.470634 C143.487394,30.6931268 142.711851,30.8043715 141.88649,30.8043715 L138.919473,30.8043715 L138.919473,35.6489488 L136.293984,35.6489488 L136.293984,20.5769306 Z M150.953969,20.5769306 L153.579459,20.5769306 L153.579459,26.8425839 L160.708836,26.8425839 L160.708836,20.5769306 L163.334326,20.5769306 L163.334326,35.6489488 L160.708836,35.6489488 L160.708836,29.2971697 L153.579459,29.2971697 L153.579459,35.6489488 L150.953969,35.6489488 L150.953969,20.5769306 Z M174.749804,33.4742719 C175.489783,33.4742719 176.169273,33.3343188 176.788294,33.0544085 C177.407315,32.7744982 177.937388,32.394113 178.378529,31.9132414 C178.819671,31.4323699 179.164752,30.8689691 179.413783,30.2230223 C179.662815,29.5770754 179.787329,28.8880757 179.787329,28.1560026 L179.787329,28.1129397 C179.787329,27.3808666 179.662815,26.6882784 179.413783,26.0351544 C179.164752,25.3820303 178.816113,24.815041 178.367857,24.3341694 C177.9196,23.8532979 177.382412,23.4693241 176.756276,23.1822366 C176.13014,22.8951491 175.447092,22.7516075 174.707113,22.7516075 C173.967134,22.7516075 173.287645,22.8915606 172.668624,23.1714709 C172.049603,23.4513812 171.51953,23.8317664 171.078388,24.312638 C170.637247,24.7935095 170.292166,25.3569103 170.043134,26.0028572 C169.794103,26.648804 169.669589,27.3378037 169.669589,28.0698768 L169.669589,28.1129397 C169.669589,28.8450128 169.794103,29.537601 170.043134,30.1907251 C170.292166,30.8438491 170.640804,31.4108384 171.089061,31.89171 C171.537317,32.3725815 172.074506,32.7565553 172.700642,33.0436428 C173.326778,33.3307303 174.009825,33.4742719 174.749804,33.4742719 Z M174.707113,35.9073262 C173.554454,35.9073262 172.501422,35.7027795 171.547988,35.2936798 C170.594553,34.8845801 169.77632,34.3283564 169.093262,33.6249921 C168.410204,32.9216277 167.876574,32.0998521 167.492354,31.1596405 C167.108134,30.219429 166.916027,29.2182264 166.916027,28.1560026 L166.916027,28.1129397 C166.916027,27.050716 167.108134,26.0495134 167.492354,25.1093018 C167.876574,24.1690903 168.41732,23.3437261 169.114607,22.6331845 C169.811895,21.922643 170.637244,21.3592422 171.590679,20.9429654 C172.544113,20.5266885 173.597145,20.3185532 174.749804,20.3185532 C175.902464,20.3185532 176.955495,20.5231 177.90893,20.9321996 C178.862364,21.3412993 179.680598,21.897523 180.363656,22.6008874 C181.046713,23.3042517 181.580344,24.1260274 181.964564,25.0662389 C182.348784,26.0064504 182.540891,27.0076531 182.540891,28.0698768 L182.540891,28.1129397 C182.540891,29.1751634 182.348784,30.1763661 181.964564,31.1165776 C181.580344,32.0567892 181.039598,32.8821533 180.34231,33.5926949 C179.645022,34.3032364 178.819673,34.8666372 177.866239,35.2829141 C176.912804,35.6991909 175.859773,35.9073262 174.707113,35.9073262 Z M186.122592,20.5769306 L188.555972,20.5769306 L196.560513,30.9981546 L196.560513,20.5769306 L199.143311,20.5769306 L199.143311,35.6489488 L196.944731,35.6489488 L188.70539,24.9262844 L188.70539,35.6489488 L186.122592,35.6489488 L186.122592,20.5769306 Z" id="SANDALPHON" fill="#E54D4D"></path>
                    <g id="Group" stroke-width="1.20369035" stroke="#979797">
                        <polygon id="Path-6" points="24.7960213 48.8700641 24.6756522 15.1959154 0 0"></polygon>
                        <polygon id="Path-6-Copy" transform="translate(27.106763, 24.363868) scale(-1, 1) translate(-27.106763, -24.363868) " points="39.5044295 48.7277364 39.3840638 15.1516593 14.7090961 0"></polygon>
                    </g>
                </g>
                <path d="M143.846542,50.817245 C143.156192,50.817245 142.519645,50.6906348 141.936881,50.4374107 C141.354118,50.1841866 140.849811,49.8382695 140.423946,49.3996492 C139.99808,48.9610288 139.664117,48.4432837 139.422046,47.8463983 C139.179975,47.2495128 139.058942,46.6119402 139.058942,45.9336613 L139.058942,45.9065303 C139.058942,45.2282514 139.177734,44.5929397 139.415322,44.0005761 C139.65291,43.4082126 139.986873,42.8882065 140.417222,42.4405425 C140.84757,41.9928784 141.358601,41.6401786 141.95033,41.3824327 C142.542059,41.1246867 143.196537,40.9958156 143.913784,40.9958156 C144.344132,40.9958156 144.736371,41.03199 145.090512,41.1043397 C145.444652,41.1766895 145.76965,41.2784298 146.065515,41.4095637 C146.361379,41.5406976 146.634825,41.6966994 146.885862,41.8775738 C147.136898,42.0584482 147.374483,42.257407 147.598623,42.4744562 L146.536206,43.7089177 C146.159651,43.3562126 145.760688,43.0713398 145.339305,42.8542905 C144.917923,42.6372413 144.438271,42.5287183 143.900336,42.5287183 C143.452056,42.5287183 143.037404,42.6168932 142.656366,42.7932457 C142.275329,42.9695982 141.945848,43.2092532 141.667915,43.5122178 C141.389982,43.8151823 141.174811,44.170143 141.022396,44.5771103 C140.869981,44.9840776 140.793774,45.4181696 140.793774,45.8793993 L140.793774,45.9065303 C140.793774,46.36776 140.869981,46.8041128 141.022396,47.215602 C141.174811,47.6270912 141.389982,47.9865737 141.667915,48.2940601 C141.945848,48.6015465 142.275329,48.8434624 142.656366,49.0198149 C143.037404,49.1961674 143.452056,49.2843423 143.900336,49.2843423 C144.474133,49.2843423 144.967233,49.1735584 145.37965,48.9519873 C145.792068,48.7304162 146.199996,48.4297171 146.603447,48.0498809 L147.665864,49.1351217 C147.423793,49.3973896 147.170519,49.6302618 146.906034,49.8337455 C146.641549,50.0372292 146.356896,50.213579 146.052066,50.3628004 C145.747236,50.5120217 145.413273,50.6250665 145.050167,50.7019381 C144.68706,50.7788098 144.285856,50.817245 143.846542,50.817245 Z M155.102783,46.883247 L153.475537,43.0849042 L151.861739,46.883247 L155.102783,46.883247 Z M152.735879,41.0907742 L154.268988,41.0907742 L158.411069,50.6544589 L156.662788,50.6544589 L155.707957,48.3618876 L151.256565,48.3618876 L150.288286,50.6544589 L148.593798,50.6544589 L152.735879,41.0907742 Z M163.602119,46.0964474 C164.22971,46.0964474 164.725052,45.9381847 165.088158,45.6216546 C165.451265,45.3051244 165.632815,44.8981632 165.632815,44.4007587 L165.632815,44.3736277 C165.632815,43.8129171 165.449023,43.3901296 165.081434,43.1052525 C164.713845,42.8203753 164.220745,42.6779389 163.602119,42.6779389 L161.67901,42.6779389 L161.67901,46.0964474 L163.602119,46.0964474 Z M160.024867,41.1586017 L163.736602,41.1586017 C164.283503,41.1586017 164.778845,41.2332113 165.222641,41.3824327 C165.666438,41.531654 166.042987,41.7464391 166.3523,42.0267944 C166.661613,42.3071497 166.899197,42.6417622 167.065061,43.0306422 C167.230924,43.4195221 167.313855,43.853614 167.313855,44.3329311 L167.313855,44.3600621 C167.313855,44.8936415 167.215235,45.361647 167.017992,45.7640924 C166.820749,46.1665379 166.551785,46.5034114 166.211093,46.774723 C165.8704,47.0460345 165.471437,47.251776 165.014192,47.3919537 C164.556947,47.5321313 164.06833,47.6022191 163.548326,47.6022191 L161.67901,47.6022191 L161.67901,50.6544589 L160.024867,50.6544589 L160.024867,41.1586017 Z M169.102481,41.1586017 L170.756624,41.1586017 L170.756624,50.6544589 L169.102481,50.6544589 L169.102481,41.1586017 Z M175.584569,42.7050699 L172.599043,42.7050699 L172.599043,41.1586017 L180.237687,41.1586017 L180.237687,42.7050699 L177.25216,42.7050699 L177.25216,50.6544589 L175.584569,50.6544589 L175.584569,42.7050699 Z M187.688054,46.883247 L186.060808,43.0849042 L184.44701,46.883247 L187.688054,46.883247 Z M185.32115,41.0907742 L186.854258,41.0907742 L190.99634,50.6544589 L189.248059,50.6544589 L188.293228,48.3618876 L183.841835,48.3618876 L182.873557,50.6544589 L181.179069,50.6544589 L185.32115,41.0907742 Z M192.610138,41.1586017 L194.264281,41.1586017 L194.264281,49.1351217 L199.213261,49.1351217 L199.213261,50.6544589 L192.610138,50.6544589 L192.610138,41.1586017 Z" id="CAPITAL" fill="#8F908A"></path>
            </g>
        </g>
    </g>
</svg>