<?xml version="1.0" encoding="UTF-8"?>
<svg width="24px" height="20px" viewBox="0 0 24 20" version="1.1" xmlns="http://www.w3.org/2000/svg" xmlns:xlink="http://www.w3.org/1999/xlink">
    <!-- Generator: Sketch 47.1 (45422) - http://www.bohemiancoding.com/sketch -->
    <title>twitter</title>
    <desc>Created with Sketch.</desc>
    <defs></defs>
    <g id="app" stroke="none" stroke-width="1" fill="none" fill-rule="evenodd">
        <g id="Landing" transform="translate(-1290.000000, -2295.000000)" fill="#60AEF0">
            <g id="twitter" transform="translate(1290.000000, 2295.000000)">
                <g id="Layer_1">
                    <path d="M24,2.557 C23.117,2.949 22.168,3.213 21.172,3.332 C22.189,2.723 22.969,1.758 23.337,0.608 C22.386,1.172 21.332,1.582 20.21,1.803 C19.312,0.846 18.032,0.248 16.616,0.248 C13.897,0.248 11.692,2.453 11.692,5.172 C11.692,5.558 11.736,5.934 11.819,6.294 C7.727,6.089 4.099,4.128 1.67,1.149 C1.247,1.876 1.004,2.722 1.004,3.625 C1.004,5.333 1.873,6.84 3.194,7.723 C2.387,7.697 1.628,7.476 0.964,7.107 L0.964,7.169 C0.964,9.555 2.661,11.545 4.914,11.997 C4.501,12.11 4.066,12.17 3.616,12.17 C3.299,12.17 2.99,12.139 2.69,12.082 C3.317,14.038 5.135,15.462 7.29,15.502 C5.605,16.823 3.482,17.61 1.175,17.61 C0.778,17.61 0.386,17.587 1.77635684e-15,17.541 C2.179,18.938 4.767,19.753 7.548,19.753 C16.605,19.753 21.557,12.25 21.557,5.743 C21.557,5.53 21.552,5.317 21.543,5.106 C22.505,4.411 23.34,3.544 24,2.557 L24,2.557 Z" id="Shape"></path>
                </g>
            </g>
        </g>
    </g>
</svg>