<?xml version="1.0" encoding="UTF-8"?>
<svg width="14px" height="12px" viewBox="0 0 14 12" version="1.1" xmlns="http://www.w3.org/2000/svg" xmlns:xlink="http://www.w3.org/1999/xlink">
    <!-- Generator: Sketch 47.1 (45422) - http://www.bohemiancoding.com/sketch -->
    <title>Twitter</title>
    <desc>Created with Sketch.</desc>
    <defs></defs>
    <g id="app" stroke="none" stroke-width="1" fill="none" fill-rule="evenodd">
        <g id="user-events-show" transform="translate(-980.000000, -1081.000000)" fill="#006DC9">
            <g id="Twitter" transform="translate(980.000000, 1081.000000)">
                <g id="Layer_1">
                    <path d="M14,1.5342 C13.4849167,1.7694 12.9313333,1.9278 12.3503333,1.9992 C12.9435833,1.6338 13.3985833,1.0548 13.61325,0.3648 C13.0585,0.7032 12.4436667,0.9492 11.7891667,1.0818 C11.2653333,0.5076 10.5186667,0.1488 9.69266667,0.1488 C8.10658333,0.1488 6.82033333,1.4718 6.82033333,3.1032 C6.82033333,3.3348 6.846,3.5604 6.89441667,3.7764 C4.50741667,3.6534 2.39108333,2.4768 0.974166667,0.6894 C0.727416667,1.1256 0.585666667,1.6332 0.585666667,2.175 C0.585666667,3.1998 1.09258333,4.104 1.86316667,4.6338 C1.39241667,4.6182 0.949666667,4.4856 0.562333333,4.2642 L0.562333333,4.3014 C0.562333333,5.733 1.55225,6.927 2.8665,7.1982 C2.62558333,7.266 2.37183333,7.302 2.10933333,7.302 C1.92441667,7.302 1.74416667,7.2834 1.56916667,7.2492 C1.93491667,8.4228 2.99541667,9.2772 4.2525,9.3012 C3.26958333,10.0938 2.03116667,10.566 0.685416667,10.566 C0.453833333,10.566 0.225166667,10.5522 0,10.5246 C1.27108333,11.3628 2.78075,11.8518 4.403,11.8518 C9.68625,11.8518 12.5749167,7.35 12.5749167,3.4458 C12.5749167,3.318 12.572,3.1902 12.56675,3.0636 C13.1279167,2.6466 13.615,2.1264 14,1.5342 L14,1.5342 Z" id="Shape"></path>
                </g>
            </g>
        </g>
    </g>
</svg>